<mxfile host="app.diagrams.net" agent="Mozilla/5.0 (Windows NT 10.0; Win64; x64) AppleWebKit/537.36 (KHTML, like Gecko) Chrome/131.0.0.0 Safari/537.36" version="25.0.3">
  <diagram name="Page-1" id="VLG8_q0UeuUh3ziCszn1">
    <mxGraphModel dx="1105" dy="635" grid="1" gridSize="10" guides="1" tooltips="1" connect="1" arrows="1" fold="1" page="1" pageScale="1" pageWidth="850" pageHeight="1100" math="0" shadow="0">
      <root>
        <mxCell id="0" />
        <mxCell id="1" parent="0" />
        <mxCell id="xm9gQBCulE0NQXOzr0cd-17" value="Koordinator" style="swimlane;whiteSpace=wrap;html=1;strokeColor=#141cff;" vertex="1" parent="1">
          <mxGeometry x="210" y="140" width="220" height="550" as="geometry" />
        </mxCell>
        <mxCell id="xm9gQBCulE0NQXOzr0cd-18" value="&lt;font style=&quot;font-size: 9px;&quot;&gt;start&lt;/font&gt;" style="rounded=0;orthogonalLoop=1;jettySize=auto;html=1;" edge="1" parent="xm9gQBCulE0NQXOzr0cd-17" source="xm9gQBCulE0NQXOzr0cd-19" target="xm9gQBCulE0NQXOzr0cd-20">
          <mxGeometry relative="1" as="geometry" />
        </mxCell>
        <mxCell id="xm9gQBCulE0NQXOzr0cd-19" value="" style="ellipse;whiteSpace=wrap;html=1;aspect=fixed;" vertex="1" parent="xm9gQBCulE0NQXOzr0cd-17">
          <mxGeometry x="90" y="30" width="20" height="20" as="geometry" />
        </mxCell>
        <mxCell id="xm9gQBCulE0NQXOzr0cd-20" value="Membuka Fitur Data Master Dosen Pembimbing Pada SIdebar" style="rounded=1;whiteSpace=wrap;html=1;fontSize=8;" vertex="1" parent="xm9gQBCulE0NQXOzr0cd-17">
          <mxGeometry x="45" y="80" width="110" height="40" as="geometry" />
        </mxCell>
        <mxCell id="xm9gQBCulE0NQXOzr0cd-22" value="Menambah Dosen Pembimbing" style="rounded=1;whiteSpace=wrap;html=1;fontSize=8;" vertex="1" parent="xm9gQBCulE0NQXOzr0cd-17">
          <mxGeometry x="40" y="160" width="110" height="30" as="geometry" />
        </mxCell>
        <mxCell id="xm9gQBCulE0NQXOzr0cd-24" value="Import Dosen Pembimbing" style="rounded=1;whiteSpace=wrap;html=1;fontSize=8;" vertex="1" parent="xm9gQBCulE0NQXOzr0cd-17">
          <mxGeometry x="40" y="220" width="110" height="30" as="geometry" />
        </mxCell>
        <mxCell id="xm9gQBCulE0NQXOzr0cd-26" value="Edit Dosen Pembimbing" style="rounded=1;whiteSpace=wrap;html=1;fontSize=8;" vertex="1" parent="xm9gQBCulE0NQXOzr0cd-17">
          <mxGeometry x="40" y="285" width="110" height="30" as="geometry" />
        </mxCell>
        <mxCell id="xm9gQBCulE0NQXOzr0cd-48" value="Detail Dosen Pembimbing" style="rounded=1;whiteSpace=wrap;html=1;fontSize=8;" vertex="1" parent="xm9gQBCulE0NQXOzr0cd-17">
          <mxGeometry x="40" y="352" width="110" height="30" as="geometry" />
        </mxCell>
        <mxCell id="xm9gQBCulE0NQXOzr0cd-49" value="Delete Dosen Pembimbing" style="rounded=1;whiteSpace=wrap;html=1;fontSize=8;" vertex="1" parent="xm9gQBCulE0NQXOzr0cd-17">
          <mxGeometry x="40" y="416" width="110" height="30" as="geometry" />
        </mxCell>
        <mxCell id="xm9gQBCulE0NQXOzr0cd-50" value="Pilih dan Delete Pilihan Dosen Pembimbing" style="rounded=1;whiteSpace=wrap;html=1;fontSize=8;" vertex="1" parent="xm9gQBCulE0NQXOzr0cd-17">
          <mxGeometry x="40" y="480" width="110" height="30" as="geometry" />
        </mxCell>
        <mxCell id="xm9gQBCulE0NQXOzr0cd-28" value="Sistem" style="swimlane;whiteSpace=wrap;html=1;strokeColor=#141cff;" vertex="1" parent="1">
          <mxGeometry x="430" y="140" width="220" height="550" as="geometry" />
        </mxCell>
        <mxCell id="xm9gQBCulE0NQXOzr0cd-29" value="&lt;font style=&quot;font-size: 8px;&quot;&gt;end&lt;/font&gt;" style="edgeStyle=orthogonalEdgeStyle;rounded=0;orthogonalLoop=1;jettySize=auto;html=1;entryX=0.5;entryY=1;entryDx=0;entryDy=0;" edge="1" parent="xm9gQBCulE0NQXOzr0cd-28" source="xm9gQBCulE0NQXOzr0cd-30" target="xm9gQBCulE0NQXOzr0cd-35">
          <mxGeometry relative="1" as="geometry" />
        </mxCell>
        <mxCell id="xm9gQBCulE0NQXOzr0cd-30" value="Menampilkan Halaman Data Master Dosen Pembimbing" style="rounded=1;whiteSpace=wrap;html=1;fontSize=8;" vertex="1" parent="xm9gQBCulE0NQXOzr0cd-28">
          <mxGeometry x="52" y="80" width="110" height="40" as="geometry" />
        </mxCell>
        <mxCell id="xm9gQBCulE0NQXOzr0cd-31" value="Menampilkan From Pengisian untuk menambah Data Dosen Pembimbing" style="rounded=1;whiteSpace=wrap;html=1;fontSize=8;" vertex="1" parent="xm9gQBCulE0NQXOzr0cd-28">
          <mxGeometry x="30" y="180" width="110" height="40" as="geometry" />
        </mxCell>
        <mxCell id="xm9gQBCulE0NQXOzr0cd-32" value="Menampilkan Modal untuk import File XLSX, XLS, CSV" style="rounded=1;whiteSpace=wrap;html=1;fontSize=8;" vertex="1" parent="xm9gQBCulE0NQXOzr0cd-28">
          <mxGeometry x="30" y="250" width="110" height="40" as="geometry" />
        </mxCell>
        <mxCell id="xm9gQBCulE0NQXOzr0cd-33" value="Menampilkan Halaman Pengumuman yang sudah dibuat" style="rounded=1;whiteSpace=wrap;html=1;fontSize=8;" vertex="1" parent="xm9gQBCulE0NQXOzr0cd-28">
          <mxGeometry x="30" y="320" width="110" height="40" as="geometry" />
        </mxCell>
        <mxCell id="xm9gQBCulE0NQXOzr0cd-35" value="" style="ellipse;whiteSpace=wrap;html=1;aspect=fixed;" vertex="1" parent="xm9gQBCulE0NQXOzr0cd-28">
          <mxGeometry x="97" y="30" width="20" height="20" as="geometry" />
        </mxCell>
        <mxCell id="xm9gQBCulE0NQXOzr0cd-61" style="edgeStyle=orthogonalEdgeStyle;rounded=0;orthogonalLoop=1;jettySize=auto;html=1;entryX=1;entryY=0.5;entryDx=0;entryDy=0;strokeColor=#ff0000;" edge="1" parent="xm9gQBCulE0NQXOzr0cd-28" source="xm9gQBCulE0NQXOzr0cd-52" target="xm9gQBCulE0NQXOzr0cd-30">
          <mxGeometry relative="1" as="geometry">
            <Array as="points">
              <mxPoint x="190" y="430" />
              <mxPoint x="190" y="100" />
            </Array>
          </mxGeometry>
        </mxCell>
        <mxCell id="xm9gQBCulE0NQXOzr0cd-65" value="Tutup / Batal" style="edgeLabel;html=1;align=center;verticalAlign=middle;resizable=0;points=[];" vertex="1" connectable="0" parent="xm9gQBCulE0NQXOzr0cd-61">
          <mxGeometry x="-0.8137" relative="1" as="geometry">
            <mxPoint as="offset" />
          </mxGeometry>
        </mxCell>
        <mxCell id="xm9gQBCulE0NQXOzr0cd-71" value="" style="edgeStyle=orthogonalEdgeStyle;rounded=0;orthogonalLoop=1;jettySize=auto;html=1;entryX=0.5;entryY=0;entryDx=0;entryDy=0;strokeColor=#00ff2a;" edge="1" parent="xm9gQBCulE0NQXOzr0cd-28" source="xm9gQBCulE0NQXOzr0cd-52" target="xm9gQBCulE0NQXOzr0cd-70">
          <mxGeometry relative="1" as="geometry" />
        </mxCell>
        <mxCell id="xm9gQBCulE0NQXOzr0cd-52" value="Validasi" style="strokeWidth=2;html=1;shape=mxgraph.flowchart.decision;whiteSpace=wrap;" vertex="1" parent="xm9gQBCulE0NQXOzr0cd-28">
          <mxGeometry x="52" y="395" width="70" height="70" as="geometry" />
        </mxCell>
        <mxCell id="xm9gQBCulE0NQXOzr0cd-72" style="edgeStyle=orthogonalEdgeStyle;rounded=0;orthogonalLoop=1;jettySize=auto;html=1;entryX=1;entryY=0.75;entryDx=0;entryDy=0;fontColor=#00ff1e;strokeColor=#00ff04;" edge="1" parent="xm9gQBCulE0NQXOzr0cd-28" source="xm9gQBCulE0NQXOzr0cd-70" target="xm9gQBCulE0NQXOzr0cd-30">
          <mxGeometry relative="1" as="geometry">
            <Array as="points">
              <mxPoint x="200" y="510" />
              <mxPoint x="200" y="110" />
            </Array>
          </mxGeometry>
        </mxCell>
        <mxCell id="xm9gQBCulE0NQXOzr0cd-70" value="Validasi Berhasil" style="rounded=1;whiteSpace=wrap;html=1;fontSize=8;" vertex="1" parent="xm9gQBCulE0NQXOzr0cd-28">
          <mxGeometry x="43" y="500" width="88" height="20" as="geometry" />
        </mxCell>
        <mxCell id="xm9gQBCulE0NQXOzr0cd-76" style="edgeStyle=orthogonalEdgeStyle;rounded=0;orthogonalLoop=1;jettySize=auto;html=1;entryX=0.5;entryY=0;entryDx=0;entryDy=0;entryPerimeter=0;" edge="1" parent="xm9gQBCulE0NQXOzr0cd-28" source="xm9gQBCulE0NQXOzr0cd-31" target="xm9gQBCulE0NQXOzr0cd-52">
          <mxGeometry relative="1" as="geometry">
            <Array as="points">
              <mxPoint x="150" y="200" />
              <mxPoint x="150" y="370" />
              <mxPoint x="87" y="370" />
            </Array>
          </mxGeometry>
        </mxCell>
        <mxCell id="xm9gQBCulE0NQXOzr0cd-77" style="edgeStyle=orthogonalEdgeStyle;rounded=0;orthogonalLoop=1;jettySize=auto;html=1;entryX=0.695;entryY=0.206;entryDx=0;entryDy=0;entryPerimeter=0;" edge="1" parent="xm9gQBCulE0NQXOzr0cd-28" source="xm9gQBCulE0NQXOzr0cd-32" target="xm9gQBCulE0NQXOzr0cd-52">
          <mxGeometry relative="1" as="geometry">
            <Array as="points">
              <mxPoint x="160" y="270" />
              <mxPoint x="160" y="380" />
              <mxPoint x="101" y="380" />
            </Array>
          </mxGeometry>
        </mxCell>
        <mxCell id="xm9gQBCulE0NQXOzr0cd-79" style="edgeStyle=orthogonalEdgeStyle;rounded=0;orthogonalLoop=1;jettySize=auto;html=1;entryX=0.859;entryY=0.334;entryDx=0;entryDy=0;entryPerimeter=0;" edge="1" parent="xm9gQBCulE0NQXOzr0cd-28" source="xm9gQBCulE0NQXOzr0cd-33" target="xm9gQBCulE0NQXOzr0cd-52">
          <mxGeometry relative="1" as="geometry">
            <Array as="points">
              <mxPoint x="170" y="340" />
              <mxPoint x="170" y="390" />
              <mxPoint x="112" y="390" />
            </Array>
          </mxGeometry>
        </mxCell>
        <mxCell id="xm9gQBCulE0NQXOzr0cd-39" value="&lt;b&gt;Activity Diagram Data Dosen Pembimbing&lt;/b&gt;" style="text;html=1;align=center;verticalAlign=middle;whiteSpace=wrap;rounded=0;" vertex="1" parent="1">
          <mxGeometry x="275" y="100" width="260" height="30" as="geometry" />
        </mxCell>
        <mxCell id="xm9gQBCulE0NQXOzr0cd-40" style="rounded=0;orthogonalLoop=1;jettySize=auto;html=1;entryX=0;entryY=0.5;entryDx=0;entryDy=0;" edge="1" parent="1" source="xm9gQBCulE0NQXOzr0cd-20" target="xm9gQBCulE0NQXOzr0cd-30">
          <mxGeometry relative="1" as="geometry" />
        </mxCell>
        <mxCell id="xm9gQBCulE0NQXOzr0cd-53" style="edgeStyle=orthogonalEdgeStyle;rounded=0;orthogonalLoop=1;jettySize=auto;html=1;entryX=0.5;entryY=0;entryDx=0;entryDy=0;" edge="1" parent="1" source="xm9gQBCulE0NQXOzr0cd-30" target="xm9gQBCulE0NQXOzr0cd-22">
          <mxGeometry relative="1" as="geometry">
            <Array as="points">
              <mxPoint x="370" y="250" />
              <mxPoint x="370" y="270" />
              <mxPoint x="305" y="270" />
            </Array>
          </mxGeometry>
        </mxCell>
        <mxCell id="xm9gQBCulE0NQXOzr0cd-54" style="edgeStyle=orthogonalEdgeStyle;rounded=0;orthogonalLoop=1;jettySize=auto;html=1;exitX=0.056;exitY=0.999;exitDx=0;exitDy=0;entryX=0.5;entryY=0;entryDx=0;entryDy=0;exitPerimeter=0;" edge="1" parent="1" source="xm9gQBCulE0NQXOzr0cd-30" target="xm9gQBCulE0NQXOzr0cd-24">
          <mxGeometry relative="1" as="geometry">
            <Array as="points">
              <mxPoint x="380" y="260" />
              <mxPoint x="380" y="340" />
              <mxPoint x="305" y="340" />
            </Array>
          </mxGeometry>
        </mxCell>
        <mxCell id="xm9gQBCulE0NQXOzr0cd-55" style="edgeStyle=orthogonalEdgeStyle;rounded=0;orthogonalLoop=1;jettySize=auto;html=1;exitX=0.25;exitY=1;exitDx=0;exitDy=0;entryX=0.5;entryY=0;entryDx=0;entryDy=0;" edge="1" parent="1" source="xm9gQBCulE0NQXOzr0cd-30" target="xm9gQBCulE0NQXOzr0cd-26">
          <mxGeometry relative="1" as="geometry">
            <Array as="points">
              <mxPoint x="490" y="260" />
              <mxPoint x="490" y="270" />
              <mxPoint x="390" y="270" />
              <mxPoint x="390" y="410" />
              <mxPoint x="305" y="410" />
            </Array>
          </mxGeometry>
        </mxCell>
        <mxCell id="xm9gQBCulE0NQXOzr0cd-56" style="edgeStyle=orthogonalEdgeStyle;rounded=0;orthogonalLoop=1;jettySize=auto;html=1;exitX=0.5;exitY=1;exitDx=0;exitDy=0;entryX=0.5;entryY=0;entryDx=0;entryDy=0;" edge="1" parent="1" source="xm9gQBCulE0NQXOzr0cd-30" target="xm9gQBCulE0NQXOzr0cd-48">
          <mxGeometry relative="1" as="geometry">
            <Array as="points">
              <mxPoint x="505" y="280" />
              <mxPoint x="400" y="280" />
              <mxPoint x="400" y="470" />
              <mxPoint x="305" y="470" />
            </Array>
          </mxGeometry>
        </mxCell>
        <mxCell id="xm9gQBCulE0NQXOzr0cd-57" style="edgeStyle=orthogonalEdgeStyle;rounded=0;orthogonalLoop=1;jettySize=auto;html=1;exitX=0.75;exitY=1;exitDx=0;exitDy=0;entryX=0.5;entryY=0;entryDx=0;entryDy=0;" edge="1" parent="1" source="xm9gQBCulE0NQXOzr0cd-30" target="xm9gQBCulE0NQXOzr0cd-49">
          <mxGeometry relative="1" as="geometry">
            <Array as="points">
              <mxPoint x="532" y="260" />
              <mxPoint x="532" y="290" />
              <mxPoint x="410" y="290" />
              <mxPoint x="410" y="540" />
              <mxPoint x="305" y="540" />
            </Array>
          </mxGeometry>
        </mxCell>
        <mxCell id="xm9gQBCulE0NQXOzr0cd-58" style="edgeStyle=orthogonalEdgeStyle;rounded=0;orthogonalLoop=1;jettySize=auto;html=1;entryX=0.545;entryY=0;entryDx=0;entryDy=0;entryPerimeter=0;" edge="1" parent="1" target="xm9gQBCulE0NQXOzr0cd-50">
          <mxGeometry relative="1" as="geometry">
            <mxPoint x="560" y="260" as="sourcePoint" />
            <Array as="points">
              <mxPoint x="560" y="300" />
              <mxPoint x="420" y="300" />
              <mxPoint x="420" y="600" />
              <mxPoint x="310" y="600" />
            </Array>
          </mxGeometry>
        </mxCell>
        <mxCell id="xm9gQBCulE0NQXOzr0cd-59" style="edgeStyle=orthogonalEdgeStyle;rounded=0;orthogonalLoop=1;jettySize=auto;html=1;entryX=0;entryY=0.5;entryDx=0;entryDy=0;" edge="1" parent="1" source="xm9gQBCulE0NQXOzr0cd-22" target="xm9gQBCulE0NQXOzr0cd-31">
          <mxGeometry relative="1" as="geometry">
            <Array as="points">
              <mxPoint x="440" y="315" />
              <mxPoint x="440" y="340" />
            </Array>
          </mxGeometry>
        </mxCell>
        <mxCell id="xm9gQBCulE0NQXOzr0cd-60" style="edgeStyle=orthogonalEdgeStyle;rounded=0;orthogonalLoop=1;jettySize=auto;html=1;entryX=0;entryY=0.5;entryDx=0;entryDy=0;" edge="1" parent="1" source="xm9gQBCulE0NQXOzr0cd-24" target="xm9gQBCulE0NQXOzr0cd-32">
          <mxGeometry relative="1" as="geometry">
            <Array as="points">
              <mxPoint x="440" y="375" />
              <mxPoint x="440" y="410" />
            </Array>
          </mxGeometry>
        </mxCell>
        <mxCell id="xm9gQBCulE0NQXOzr0cd-66" style="edgeStyle=orthogonalEdgeStyle;rounded=0;orthogonalLoop=1;jettySize=auto;html=1;" edge="1" parent="1" source="xm9gQBCulE0NQXOzr0cd-49" target="xm9gQBCulE0NQXOzr0cd-52">
          <mxGeometry relative="1" as="geometry">
            <mxPoint x="450" y="569" as="targetPoint" />
            <Array as="points" />
          </mxGeometry>
        </mxCell>
        <mxCell id="xm9gQBCulE0NQXOzr0cd-68" style="edgeStyle=orthogonalEdgeStyle;rounded=0;orthogonalLoop=1;jettySize=auto;html=1;entryX=0.214;entryY=0.314;entryDx=0;entryDy=0;entryPerimeter=0;" edge="1" parent="1" source="xm9gQBCulE0NQXOzr0cd-48" target="xm9gQBCulE0NQXOzr0cd-52">
          <mxGeometry relative="1" as="geometry">
            <Array as="points">
              <mxPoint x="440" y="507" />
              <mxPoint x="440" y="557" />
            </Array>
          </mxGeometry>
        </mxCell>
        <mxCell id="xm9gQBCulE0NQXOzr0cd-69" style="edgeStyle=orthogonalEdgeStyle;rounded=0;orthogonalLoop=1;jettySize=auto;html=1;entryX=0.165;entryY=0.679;entryDx=0;entryDy=0;entryPerimeter=0;" edge="1" parent="1" source="xm9gQBCulE0NQXOzr0cd-50" target="xm9gQBCulE0NQXOzr0cd-52">
          <mxGeometry relative="1" as="geometry">
            <Array as="points">
              <mxPoint x="440" y="635" />
              <mxPoint x="440" y="583" />
            </Array>
          </mxGeometry>
        </mxCell>
        <mxCell id="xm9gQBCulE0NQXOzr0cd-80" style="edgeStyle=orthogonalEdgeStyle;rounded=0;orthogonalLoop=1;jettySize=auto;html=1;entryX=0;entryY=0.5;entryDx=0;entryDy=0;" edge="1" parent="1" source="xm9gQBCulE0NQXOzr0cd-26" target="xm9gQBCulE0NQXOzr0cd-33">
          <mxGeometry relative="1" as="geometry">
            <Array as="points">
              <mxPoint x="440" y="440" />
              <mxPoint x="440" y="480" />
            </Array>
          </mxGeometry>
        </mxCell>
      </root>
    </mxGraphModel>
  </diagram>
</mxfile>
